<?xml version="1.0" encoding="UTF-8" standalone="no"?>
<!DOCTYPE svg PUBLIC "-//W3C//DTD SVG 1.1//EN"
 "http://www.w3.org/Graphics/SVG/1.1/DTD/svg11.dtd">
<!-- Generated by graphviz version 14.1.3 (20260303.0454)
 -->
<!-- Title: dfd_macro Pages: 1 -->
<svg width="1526pt" height="1736pt"
 viewBox="0.00 0.00 1526.00 1736.00" xmlns="http://www.w3.org/2000/svg" xmlns:xlink="http://www.w3.org/1999/xlink">
<g id="graph0" class="graph" transform="scale(1 1) rotate(0) translate(43.2 1692.93)">
<title>dfd_macro</title>
<polygon fill="#ffffff" stroke="none" points="-43.2,43.2 -43.2,-1692.93 1482.97,-1692.93 1482.97,43.2 -43.2,43.2"/>
<text xml:space="preserve" text-anchor="middle" x="719.89" y="-1632.43" font-family="Helvetica,sans-Serif" font-size="14.00">From Clicks to Constructs</text>
<text xml:space="preserve" text-anchor="middle" x="719.89" y="-1617.43" font-family="Helvetica,sans-Serif" font-size="14.00">Data Flow Diagram &#160;(DFD &#160;&#45; &#160;Level 1)</text>
<!-- OULAD -->
<g id="node1" class="node">
<title>OULAD</title>
<polygon fill="#d5f5e3" stroke="#1e8449" stroke-width="2.5" points="510.95,-1587.98 369.5,-1587.98 369.5,-1508.18 510.95,-1508.18 510.95,-1587.98"/>
<polygon fill="none" stroke="#1e8449" stroke-width="2.5" points="514.95,-1591.98 365.5,-1591.98 365.5,-1504.18 514.95,-1504.18 514.95,-1591.98"/>
<text xml:space="preserve" text-anchor="middle" x="440.23" y="-1562.18" font-family="Helvetica,sans-Serif" font-size="12.00">OULAD</text>
<text xml:space="preserve" text-anchor="middle" x="440.23" y="-1549.43" font-family="Helvetica,sans-Serif" font-size="12.00">Open University</text>
<text xml:space="preserve" text-anchor="middle" x="440.23" y="-1536.68" font-family="Helvetica,sans-Serif" font-size="12.00">Learning Analytics</text>
<text xml:space="preserve" text-anchor="middle" x="440.23" y="-1523.93" font-family="Helvetica,sans-Serif" font-size="12.00">Dataset</text>
</g>
<!-- P1 -->
<g id="node5" class="node">
<title>P1</title>
<ellipse fill="#ebf5fb" stroke="#1a5276" stroke-width="2" cx="440.23" cy="-1281.23" rx="149.13" ry="89.45"/>
<text xml:space="preserve" text-anchor="middle" x="440.23" y="-1315.08" font-family="Helvetica,sans-Serif" font-size="12.00">1.0</text>
<text xml:space="preserve" text-anchor="middle" x="440.23" y="-1302.33" font-family="Helvetica,sans-Serif" font-size="12.00">OULAD Data Processing</text>
<text xml:space="preserve" text-anchor="middle" x="440.23" y="-1275.58" font-family="Helvetica,sans-Serif" font-size="12.00">src/ &#160;P0 &#45; P6</text>
<text xml:space="preserve" text-anchor="middle" x="440.23" y="-1262.83" font-family="Helvetica,sans-Serif" font-size="12.00">Ingestion &#45; Panel Construction</text>
<text xml:space="preserve" text-anchor="middle" x="440.23" y="-1250.08" font-family="Helvetica,sans-Serif" font-size="12.00">Indicators &#45; Demographics</text>
<text xml:space="preserve" text-anchor="middle" x="440.23" y="-1237.33" font-family="Helvetica,sans-Serif" font-size="12.00">Validated Export</text>
</g>
<!-- OULAD&#45;&gt;P1 -->
<g id="edge1" class="edge">
<title>OULAD&#45;&gt;P1</title>
<path fill="none" stroke="#1e8449" stroke-width="2" d="M440.23,-1503.04C440.23,-1470.44 440.23,-1424.69 440.23,-1383.27"/>
<polygon fill="#1e8449" stroke="#1e8449" stroke-width="2" points="443.38,-1383.47 440.23,-1374.47 437.08,-1383.47 443.38,-1383.47"/>
<text xml:space="preserve" text-anchor="middle" x="491.23" y="-1434.93" font-family="Helvetica,sans-Serif" font-size="10.00"> 5 raw CSVs</text>
<text xml:space="preserve" text-anchor="middle" x="491.23" y="-1423.68" font-family="Helvetica,sans-Serif" font-size="10.00">(clicks, demographics,</text>
<text xml:space="preserve" text-anchor="middle" x="491.23" y="-1412.43" font-family="Helvetica,sans-Serif" font-size="10.00">assessments, courses)</text>
</g>
<!-- EXT_DATASETS -->
<g id="node2" class="node">
<title>EXT_DATASETS</title>
<polygon fill="#fef5e7" stroke="#d68910" stroke-width="2.5" points="958.45,-1607.73 766,-1607.73 766,-1488.43 958.45,-1488.43 958.45,-1607.73"/>
<polygon fill="none" stroke="#d68910" stroke-width="2.5" points="962.45,-1611.73 762,-1611.73 762,-1484.43 962.45,-1484.43 962.45,-1611.73"/>
<text xml:space="preserve" text-anchor="middle" x="862.23" y="-1581.93" font-family="Helvetica,sans-Serif" font-size="12.00">External Research Datasets</text>
<text xml:space="preserve" text-anchor="middle" x="862.23" y="-1569.18" font-family="Helvetica,sans-Serif" font-size="12.00">(2 public sources)</text>
<text xml:space="preserve" text-anchor="middle" x="862.23" y="-1542.43" font-family="Helvetica,sans-Serif" font-size="12.00">Zenodo: 14,003 students</text>
<text xml:space="preserve" text-anchor="middle" x="862.23" y="-1529.68" font-family="Helvetica,sans-Serif" font-size="12.00">(behavioral + academic)</text>
<text xml:space="preserve" text-anchor="middle" x="862.23" y="-1516.93" font-family="Helvetica,sans-Serif" font-size="12.00">Kaggle: 1,300 students</text>
<text xml:space="preserve" text-anchor="middle" x="862.23" y="-1504.18" font-family="Helvetica,sans-Serif" font-size="12.00">(psychological constructs)</text>
</g>
<!-- P2 -->
<g id="node6" class="node">
<title>P2</title>
<ellipse fill="#fef9e7" stroke="#7d6608" stroke-width="2" cx="862.23" cy="-1281.23" rx="157.08" ry="89.45"/>
<text xml:space="preserve" text-anchor="middle" x="862.23" y="-1315.08" font-family="Helvetica,sans-Serif" font-size="12.00">2.0</text>
<text xml:space="preserve" text-anchor="middle" x="862.23" y="-1302.33" font-family="Helvetica,sans-Serif" font-size="12.00">Synthetic Persona Generation</text>
<text xml:space="preserve" text-anchor="middle" x="862.23" y="-1275.58" font-family="Helvetica,sans-Serif" font-size="12.00">src_syntetic/ &#160;S0 &#45; S3</text>
<text xml:space="preserve" text-anchor="middle" x="862.23" y="-1262.83" font-family="Helvetica,sans-Serif" font-size="12.00">Ingest + Decode + Normalize</text>
<text xml:space="preserve" text-anchor="middle" x="862.23" y="-1250.08" font-family="Helvetica,sans-Serif" font-size="12.00">Cross&#45;Dataset Clustering</text>
<text xml:space="preserve" text-anchor="middle" x="862.23" y="-1237.33" font-family="Helvetica,sans-Serif" font-size="12.00">Persona Assembly + Archetypes</text>
</g>
<!-- EXT_DATASETS&#45;&gt;P2 -->
<g id="edge6" class="edge">
<title>EXT_DATASETS&#45;&gt;P2</title>
<path fill="none" stroke="#d68910" stroke-width="2" d="M862.23,-1483.3C862.23,-1453.31 862.23,-1416.84 862.23,-1383.23"/>
<polygon fill="#d68910" stroke="#d68910" stroke-width="2" points="865.38,-1383.5 862.23,-1374.5 859.08,-1383.5 865.38,-1383.5"/>
<text xml:space="preserve" text-anchor="middle" x="922.98" y="-1429.3" font-family="Helvetica,sans-Serif" font-size="10.00"> Zenodo CSV (14,003 rows)</text>
<text xml:space="preserve" text-anchor="middle" x="922.98" y="-1418.05" font-family="Helvetica,sans-Serif" font-size="10.00">Kaggle CSV (1,300 rows)</text>
</g>
<!-- CLAUDE -->
<g id="node3" class="node">
<title>CLAUDE</title>
<polygon fill="#fdedec" stroke="#c0392b" stroke-width="2.5" points="997.95,-579.25 802.5,-579.25 802.5,-472.7 997.95,-472.7 997.95,-579.25"/>
<polygon fill="none" stroke="#c0392b" stroke-width="2.5" points="1001.95,-583.25 798.5,-583.25 798.5,-468.7 1001.95,-468.7 1001.95,-583.25"/>
<text xml:space="preserve" text-anchor="middle" x="900.23" y="-553.45" font-family="Helvetica,sans-Serif" font-size="12.00">Anthropic Claude API</text>
<text xml:space="preserve" text-anchor="middle" x="900.23" y="-540.7" font-family="Helvetica,sans-Serif" font-size="12.00">(claude&#45;opus&#45;4&#45;5)</text>
<text xml:space="preserve" text-anchor="middle" x="900.23" y="-513.95" font-family="Helvetica,sans-Serif" font-size="12.00">External LLM service</text>
<text xml:space="preserve" text-anchor="middle" x="900.23" y="-501.2" font-family="Helvetica,sans-Serif" font-size="12.00">Simulates student interviews</text>
<text xml:space="preserve" text-anchor="middle" x="900.23" y="-488.45" font-family="Helvetica,sans-Serif" font-size="12.00">in first person</text>
</g>
<!-- P3 -->
<g id="node7" class="node">
<title>P3</title>
<ellipse fill="#fadbd8" stroke="#922b21" stroke-width="2.5" cx="1037.22" cy="-795.46" rx="143.83" ry="89.45"/>
<text xml:space="preserve" text-anchor="middle" x="1037.22" y="-829.31" font-family="Helvetica,sans-Serif" font-size="12.00">3.0</text>
<text xml:space="preserve" text-anchor="middle" x="1037.22" y="-816.56" font-family="Helvetica,sans-Serif" font-size="12.00">LLM Interview Survey</text>
<text xml:space="preserve" text-anchor="middle" x="1037.22" y="-789.81" font-family="Helvetica,sans-Serif" font-size="12.00">src_syntetic/ &#160;S4 &#45; S5</text>
<text xml:space="preserve" text-anchor="middle" x="1037.22" y="-777.06" font-family="Helvetica,sans-Serif" font-size="12.00">Prompt Generation (Q1&#45;Q24)</text>
<text xml:space="preserve" text-anchor="middle" x="1037.22" y="-764.31" font-family="Helvetica,sans-Serif" font-size="12.00">Parallel API Execution</text>
<text xml:space="preserve" text-anchor="middle" x="1037.22" y="-751.56" font-family="Helvetica,sans-Serif" font-size="12.00">JSON Schema Validation</text>
</g>
<!-- CLAUDE&#45;&gt;P3 -->
<g id="edge11" class="edge">
<title>CLAUDE&#45;&gt;P3</title>
<path fill="none" stroke="#c0392b" stroke-width="2.5" d="M965.8,-584.37C989.36,-604.98 1010.23,-623.25 1010.23,-623.25 1010.23,-623.25 1015.38,-655.94 1021.18,-692.74"/>
<polygon fill="#c0392b" stroke="#c0392b" stroke-width="2.5" points="1018.07,-693.21 1022.58,-701.61 1024.29,-692.23 1018.07,-693.21"/>
<text xml:space="preserve" text-anchor="middle" x="1069.01" y="-647.5" font-family="Helvetica,sans-Serif" font-size="10.00"> JSON responses</text>
<text xml:space="preserve" text-anchor="middle" x="1069.01" y="-636.25" font-family="Helvetica,sans-Serif" font-size="10.00">(Q1&#45;Q24 per persona</text>
<text xml:space="preserve" text-anchor="middle" x="1069.01" y="-625" font-family="Helvetica,sans-Serif" font-size="10.00">answered in first person)</text>
</g>
<!-- RESEARCHER -->
<g id="node4" class="node">
<title>RESEARCHER</title>
<polygon fill="#f4ecf7" stroke="#6c3483" stroke-width="2.5" points="890.08,-58.3 770.38,-58.3 770.38,-4 890.08,-4 890.08,-58.3"/>
<polygon fill="none" stroke="#6c3483" stroke-width="2.5" points="894.08,-62.3 766.38,-62.3 766.38,0 894.08,0 894.08,-62.3"/>
<text xml:space="preserve" text-anchor="middle" x="830.23" y="-32.5" font-family="Helvetica,sans-Serif" font-size="12.00">Researcher</text>
<text xml:space="preserve" text-anchor="middle" x="830.23" y="-19.75" font-family="Helvetica,sans-Serif" font-size="12.00">/ Paper Output</text>
</g>
<!-- DS1 -->
<g id="node10" class="node">
<title>DS1</title>
<polygon fill="#f2f3f4" stroke="#566573" stroke-width="2" stroke-dasharray="5,2" points="718.58,-1072.03 469.88,-1072.03 469.88,-1002.43 718.58,-1002.43 718.58,-1072.03"/>
<text xml:space="preserve" text-anchor="middle" x="594.23" y="-1050.78" font-family="Helvetica,sans-Serif" font-size="11.00">DS1 &#160;OULAD Intermediate Database</text>
<text xml:space="preserve" text-anchor="middle" x="594.23" y="-1038.78" font-family="Helvetica,sans-Serif" font-size="11.00">engagement.duckdb</text>
<text xml:space="preserve" text-anchor="middle" x="594.23" y="-1026.78" font-family="Helvetica,sans-Serif" font-size="11.00">Raw tables: studentVle, studentInfo,</text>
<text xml:space="preserve" text-anchor="middle" x="594.23" y="-1014.78" font-family="Helvetica,sans-Serif" font-size="11.00">studentAssessment, assessments, courses</text>
</g>
<!-- P1&#45;&gt;DS1 -->
<g id="edge2" class="edge">
<title>P1&#45;&gt;DS1</title>
<path fill="none" stroke="#1a5276" stroke-width="1.8" d="M529.02,-1208.49C565.44,-1179.07 599.23,-1151.78 599.23,-1151.78 599.23,-1151.78 599.23,-1118.03 599.23,-1118.03 599.23,-1118.03 598.23,-1102.2 597.13,-1084.64"/>
<polygon fill="#1a5276" stroke="#1a5276" stroke-width="1.8" points="600.28,-1084.5 596.57,-1075.72 593.99,-1084.89 600.28,-1084.5"/>
<text xml:space="preserve" text-anchor="middle" x="638.98" y="-1131.03" font-family="Helvetica,sans-Serif" font-size="10.00"> raw tables loaded</text>
</g>
<!-- DS2 -->
<g id="node11" class="node">
<title>DS2</title>
<polygon fill="#d5f5e3" stroke="#1e8449" stroke-width="2" stroke-dasharray="5,2" points="252.45,-1078.03 0,-1078.03 0,-996.43 252.45,-996.43 252.45,-1078.03"/>
<text xml:space="preserve" text-anchor="middle" x="126.22" y="-1056.78" font-family="Helvetica,sans-Serif" font-size="11.00">DS2 &#160;Quantitative Panel</text>
<text xml:space="preserve" text-anchor="middle" x="126.22" y="-1044.78" font-family="Helvetica,sans-Serif" font-size="11.00">engagement_panel_weekly.csv</text>
<text xml:space="preserve" text-anchor="middle" x="126.22" y="-1032.78" font-family="Helvetica,sans-Serif" font-size="11.00">Person x Week &#160;&#45; &#160;22 columns</text>
<text xml:space="preserve" text-anchor="middle" x="126.22" y="-1020.78" font-family="Helvetica,sans-Serif" font-size="11.00">Clickstream + Assessment + Demographics</text>
<text xml:space="preserve" text-anchor="middle" x="126.22" y="-1008.78" font-family="Helvetica,sans-Serif" font-size="11.00">Engagement State {low, medium, high}</text>
</g>
<!-- P1&#45;&gt;DS2 -->
<g id="edge4" class="edge">
<title>P1&#45;&gt;DS2</title>
<path fill="none" stroke="#1e8449" stroke-width="2.5" d="M330.56,-1219.58C270.43,-1186.32 207.97,-1151.78 207.97,-1151.78 207.97,-1151.78 184.56,-1119.25 162.79,-1089.02"/>
<polygon fill="#1e8449" stroke="#1e8449" stroke-width="2.5" points="165.53,-1087.44 157.72,-1081.97 160.42,-1091.12 165.53,-1087.44"/>
<text xml:space="preserve" text-anchor="middle" x="257.1" y="-1136.65" font-family="Helvetica,sans-Serif" font-size="10.00"> validated panel export</text>
<text xml:space="preserve" text-anchor="middle" x="257.1" y="-1125.4" font-family="Helvetica,sans-Serif" font-size="10.00">(22 columns)</text>
</g>
<!-- DS6 -->
<g id="node15" class="node">
<title>DS6</title>
<polygon fill="#f8f9f9" stroke="#7f8c8d" stroke-width="1.5" stroke-dasharray="5,2" points="726.6,-557.11 485.85,-557.11 485.85,-494.83 726.6,-494.83 726.6,-557.11"/>
<text xml:space="preserve" text-anchor="middle" x="606.23" y="-538.97" font-family="Helvetica,sans-Serif" font-size="10.00">DS6 &#160;Metadata and Audit Logs</text>
<text xml:space="preserve" text-anchor="middle" x="606.23" y="-527.72" font-family="Helvetica,sans-Serif" font-size="10.00">pipeline_audit.json &#160;environment_summary.json</text>
<text xml:space="preserve" text-anchor="middle" x="606.23" y="-516.47" font-family="Helvetica,sans-Serif" font-size="10.00">column_schema.json &#160;s*_audit.json</text>
<text xml:space="preserve" text-anchor="middle" x="606.23" y="-505.22" font-family="Helvetica,sans-Serif" font-size="10.00">Full provenance trail per stage</text>
</g>
<!-- P1&#45;&gt;DS6 -->
<g id="edge5" class="edge">
<title>P1&#45;&gt;DS6</title>
<path fill="none" stroke="#7f8c8d" stroke-width="1.2" stroke-dasharray="5,2" d="M437.58,-1190.95C435.97,-1136.78 434.23,-1078.03 434.23,-1078.03 434.23,-1078.03 434.23,-996.43 434.23,-996.43 434.23,-996.43 549.37,-682.15 591.24,-567.88"/>
<polygon fill="#7f8c8d" stroke="#7f8c8d" stroke-width="1.2" points="594.18,-569.01 594.31,-559.48 588.26,-566.85 594.18,-569.01"/>
<text xml:space="preserve" text-anchor="middle" x="492.08" y="-941.3" font-family="Helvetica,sans-Serif" font-size="10.00"> stage audit logs</text>
</g>
<!-- DS3 -->
<g id="node12" class="node">
<title>DS3</title>
<polygon fill="#fad7a0" stroke="#7d6608" stroke-width="2" stroke-dasharray="5,2" points="1137.95,-1078.03 936.5,-1078.03 936.5,-996.43 1137.95,-996.43 1137.95,-1078.03"/>
<text xml:space="preserve" text-anchor="middle" x="1037.22" y="-1056.78" font-family="Helvetica,sans-Serif" font-size="11.00">DS3 &#160;Synthetic Personas</text>
<text xml:space="preserve" text-anchor="middle" x="1037.22" y="-1044.78" font-family="Helvetica,sans-Serif" font-size="11.00">student_personas.csv</text>
<text xml:space="preserve" text-anchor="middle" x="1037.22" y="-1032.78" font-family="Helvetica,sans-Serif" font-size="11.00">1,300 personas &#160;&#45; &#160;37 columns</text>
<text xml:space="preserve" text-anchor="middle" x="1037.22" y="-1020.78" font-family="Helvetica,sans-Serif" font-size="11.00">Bridge constructs + 8 Archetypes</text>
<text xml:space="preserve" text-anchor="middle" x="1037.22" y="-1008.78" font-family="Helvetica,sans-Serif" font-size="11.00">(risk level x motivation x stress)</text>
</g>
<!-- P2&#45;&gt;DS3 -->
<g id="edge7" class="edge">
<title>P2&#45;&gt;DS3</title>
<path fill="none" stroke="#7d6608" stroke-width="2.5" d="M921.96,-1197.62C948.03,-1161.58 977.76,-1120.46 1000.5,-1089.02"/>
<polygon fill="#7d6608" stroke="#7d6608" stroke-width="2.5" points="1002.99,-1090.95 1005.71,-1081.81 997.88,-1087.26 1002.99,-1090.95"/>
<text xml:space="preserve" text-anchor="middle" x="1015.75" y="-1136.65" font-family="Helvetica,sans-Serif" font-size="10.00"> 1,300 personas</text>
<text xml:space="preserve" text-anchor="middle" x="1015.75" y="-1125.4" font-family="Helvetica,sans-Serif" font-size="10.00">+ archetype labels</text>
</g>
<!-- P2&#45;&gt;DS6 -->
<g id="edge8" class="edge">
<title>P2&#45;&gt;DS6</title>
<path fill="none" stroke="#7f8c8d" stroke-width="1.2" stroke-dasharray="5,2" d="M829.09,-1193.15C797.34,-1109.72 754.23,-996.43 754.23,-996.43 754.23,-996.43 668.23,-956.43 668.23,-956.43 668.23,-956.43 627.73,-675.93 612.19,-568.32"/>
<polygon fill="#7f8c8d" stroke="#7f8c8d" stroke-width="1.2" points="615.35,-568.11 610.94,-559.66 609.11,-569.01 615.35,-568.11"/>
<text xml:space="preserve" text-anchor="middle" x="704.23" y="-941.3" font-family="Helvetica,sans-Serif" font-size="10.00"> stage audit logs</text>
</g>
<!-- P3&#45;&gt;CLAUDE -->
<g id="edge10" class="edge">
<title>P3&#45;&gt;CLAUDE</title>
<path fill="none" stroke="#c0392b" stroke-width="2.5" d="M953.93,-721.3C916.56,-688.47 880.73,-657 880.73,-657 880.73,-657 880.73,-623.25 880.73,-623.25 880.73,-623.25 883.07,-611.65 886.14,-596.51"/>
<polygon fill="#c0392b" stroke="#c0392b" stroke-width="2.5" points="889.15,-597.52 887.85,-588.08 882.98,-596.27 889.15,-597.52"/>
<text xml:space="preserve" text-anchor="middle" x="938.48" y="-641.87" font-family="Helvetica,sans-Serif" font-size="10.00"> 1,300 one&#45;shot prompts</text>
<text xml:space="preserve" text-anchor="middle" x="938.48" y="-630.62" font-family="Helvetica,sans-Serif" font-size="10.00">(persona profile + Q1&#45;Q24)</text>
</g>
<!-- DS4 -->
<g id="node13" class="node">
<title>DS4</title>
<polygon fill="#fadbd8" stroke="#922b21" stroke-width="2" stroke-dasharray="5,2" points="1336.32,-560.77 1074.12,-560.77 1074.12,-491.17 1336.32,-491.17 1336.32,-560.77"/>
<text xml:space="preserve" text-anchor="middle" x="1205.22" y="-539.52" font-family="Helvetica,sans-Serif" font-size="11.00">DS4 &#160;LLM Survey Responses</text>
<text xml:space="preserve" text-anchor="middle" x="1205.22" y="-527.52" font-family="Helvetica,sans-Serif" font-size="11.00">llm_survey_responses.csv + 1,300 JSON files</text>
<text xml:space="preserve" text-anchor="middle" x="1205.22" y="-515.52" font-family="Helvetica,sans-Serif" font-size="11.00">Q1&#45;Q24 answers in first person per persona</text>
<text xml:space="preserve" text-anchor="middle" x="1205.22" y="-503.52" font-family="Helvetica,sans-Serif" font-size="11.00">Qualitative evidence strand</text>
</g>
<!-- P3&#45;&gt;DS4 -->
<g id="edge12" class="edge">
<title>P3&#45;&gt;DS4</title>
<path fill="none" stroke="#922b21" stroke-width="2.5" d="M1098.03,-713.31C1120.33,-683.55 1140.22,-657 1140.22,-657 1140.22,-657 1163.63,-610.18 1182.35,-572.73"/>
<polygon fill="#922b21" stroke="#922b21" stroke-width="2.5" points="1185.08,-574.32 1186.28,-564.86 1179.44,-571.5 1185.08,-574.32"/>
<text xml:space="preserve" text-anchor="middle" x="1204.68" y="-641.87" font-family="Helvetica,sans-Serif" font-size="10.00"> 1,300 JSON files</text>
<text xml:space="preserve" text-anchor="middle" x="1204.68" y="-630.62" font-family="Helvetica,sans-Serif" font-size="10.00">+ aggregated flat CSV</text>
</g>
<!-- P3&#45;&gt;DS6 -->
<g id="edge13" class="edge">
<title>P3&#45;&gt;DS6</title>
<path fill="none" stroke="#7f8c8d" stroke-width="1.2" stroke-dasharray="5,2" d="M932.88,-732.77C871.07,-696.22 804.73,-657 804.73,-657 804.73,-657 720.8,-602.03 662.09,-563.57"/>
<polygon fill="#7f8c8d" stroke="#7f8c8d" stroke-width="1.2" points="664.04,-561.08 654.79,-558.78 660.59,-566.35 664.04,-561.08"/>
<text xml:space="preserve" text-anchor="middle" x="833.98" y="-636.25" font-family="Helvetica,sans-Serif" font-size="10.00"> API audit log</text>
</g>
<!-- P4 -->
<g id="node8" class="node">
<title>P4</title>
<ellipse fill="#fef9e7" stroke="#7d6608" stroke-width="2" cx="218.22" cy="-795.46" rx="156.02" ry="98.46"/>
<text xml:space="preserve" text-anchor="middle" x="218.22" y="-835.69" font-family="Helvetica,sans-Serif" font-size="12.00">4.0</text>
<text xml:space="preserve" text-anchor="middle" x="218.22" y="-822.94" font-family="Helvetica,sans-Serif" font-size="12.00">Cross&#45;Dataset Alignment</text>
<text xml:space="preserve" text-anchor="middle" x="218.22" y="-796.19" font-family="Helvetica,sans-Serif" font-size="12.00">src_syntetic/ &#160;S6</text>
<text xml:space="preserve" text-anchor="middle" x="218.22" y="-783.44" font-family="Helvetica,sans-Serif" font-size="12.00">Persona to Enrollment Matching</text>
<text xml:space="preserve" text-anchor="middle" x="218.22" y="-770.69" font-family="Helvetica,sans-Serif" font-size="12.00">Weighted Similarity Scoring</text>
<text xml:space="preserve" text-anchor="middle" x="218.22" y="-757.94" font-family="Helvetica,sans-Serif" font-size="12.00">(gender, result, engagement,</text>
<text xml:space="preserve" text-anchor="middle" x="218.22" y="-745.19" font-family="Helvetica,sans-Serif" font-size="12.00">exam, activity)</text>
</g>
<!-- DS5 -->
<g id="node14" class="node">
<title>DS5</title>
<polygon fill="#e8daef" stroke="#6c3483" stroke-width="2" stroke-dasharray="5,2" points="368.45,-566.77 134,-566.77 134,-485.17 368.45,-485.17 368.45,-566.77"/>
<text xml:space="preserve" text-anchor="middle" x="251.22" y="-545.52" font-family="Helvetica,sans-Serif" font-size="11.00">DS5 &#160;Enrollment Bridge</text>
<text xml:space="preserve" text-anchor="middle" x="251.22" y="-533.52" font-family="Helvetica,sans-Serif" font-size="11.00">persona_enrollment_bridge.csv</text>
<text xml:space="preserve" text-anchor="middle" x="251.22" y="-521.52" font-family="Helvetica,sans-Serif" font-size="11.00">Persona to OULAD enrollment mapping</text>
<text xml:space="preserve" text-anchor="middle" x="251.22" y="-509.52" font-family="Helvetica,sans-Serif" font-size="11.00">Weighted similarity score (0&#45;1)</text>
<text xml:space="preserve" text-anchor="middle" x="251.22" y="-497.52" font-family="Helvetica,sans-Serif" font-size="11.00">Up to 10 matches per persona</text>
</g>
<!-- P4&#45;&gt;DS5 -->
<g id="edge16" class="edge">
<title>P4&#45;&gt;DS5</title>
<path fill="none" stroke="#6c3483" stroke-width="2.5" d="M230.33,-696.38C235.16,-657.15 240.55,-613.51 244.64,-580.35"/>
<polygon fill="#6c3483" stroke="#6c3483" stroke-width="2.5" points="247.76,-580.8 245.73,-571.49 241.51,-580.03 247.76,-580.8"/>
<text xml:space="preserve" text-anchor="middle" x="281.4" y="-641.87" font-family="Helvetica,sans-Serif" font-size="10.00"> persona&#45;enrollment</text>
<text xml:space="preserve" text-anchor="middle" x="281.4" y="-630.62" font-family="Helvetica,sans-Serif" font-size="10.00">alignment scores</text>
</g>
<!-- P5 -->
<g id="node9" class="node">
<title>P5</title>
<ellipse fill="#f4ecf7" stroke="#6c3483" stroke-width="2.5" cx="830.23" cy="-276.75" rx="146.48" ry="89.45"/>
<text xml:space="preserve" text-anchor="middle" x="830.23" y="-310.6" font-family="Helvetica,sans-Serif" font-size="12.00">5.0</text>
<text xml:space="preserve" text-anchor="middle" x="830.23" y="-297.85" font-family="Helvetica,sans-Serif" font-size="12.00">Mixed&#45;Methods Integration</text>
<text xml:space="preserve" text-anchor="middle" x="830.23" y="-271.1" font-family="Helvetica,sans-Serif" font-size="12.00">DBN Probabilistic Modeling</text>
<text xml:space="preserve" text-anchor="middle" x="830.23" y="-258.35" font-family="Helvetica,sans-Serif" font-size="12.00">+ LE&#45;JD Convergent Analysis</text>
<text xml:space="preserve" text-anchor="middle" x="830.23" y="-245.6" font-family="Helvetica,sans-Serif" font-size="12.00">Behavioral patterns meet</text>
<text xml:space="preserve" text-anchor="middle" x="830.23" y="-232.85" font-family="Helvetica,sans-Serif" font-size="12.00">qualitative mechanisms</text>
</g>
<!-- P5&#45;&gt;RESEARCHER -->
<g id="edge21" class="edge">
<title>P5&#45;&gt;RESEARCHER</title>
<path fill="none" stroke="#6c3483" stroke-width="3" d="M830.23,-186.08C830.23,-148.79 830.23,-107.17 830.23,-76.62"/>
<polygon fill="#6c3483" stroke="#6c3483" stroke-width="3" points="833.38,-76.95 830.23,-67.95 827.08,-76.95 833.38,-76.95"/>
<text xml:space="preserve" text-anchor="middle" x="895.85" y="-137.8" font-family="Helvetica,sans-Serif" font-size="10.00"> LE&#45;JD Report</text>
<text xml:space="preserve" text-anchor="middle" x="895.85" y="-126.55" font-family="Helvetica,sans-Serif" font-size="10.00">DBN engagement trajectories</text>
<text xml:space="preserve" text-anchor="middle" x="895.85" y="-115.3" font-family="Helvetica,sans-Serif" font-size="10.00">+ Qualitative mechanisms</text>
<text xml:space="preserve" text-anchor="middle" x="895.85" y="-104.05" font-family="Helvetica,sans-Serif" font-size="10.00">Answers RQ1 RQ2 RQ3 RQ4</text>
</g>
<!-- DS1&#45;&gt;P1 -->
<g id="edge3" class="edge">
<title>DS1&#45;&gt;P1</title>
<path fill="none" stroke="#1a5276" stroke-width="1.5" stroke-dasharray="5,2" d="M534.97,-1073C498.32,-1094.5 458.23,-1118.03 458.23,-1118.03 458.23,-1118.03 455.03,-1146.8 451.33,-1180.12"/>
<polygon fill="#1a5276" stroke="#1a5276" stroke-width="1.5" points="448.23,-1179.51 450.37,-1188.8 454.49,-1180.21 448.23,-1179.51"/>
<text xml:space="preserve" text-anchor="middle" x="519.73" y="-1142.28" font-family="Helvetica,sans-Serif" font-size="10.00"> intermediate tables</text>
<text xml:space="preserve" text-anchor="middle" x="519.73" y="-1131.03" font-family="Helvetica,sans-Serif" font-size="10.00">(panel_base, indicators,</text>
<text xml:space="preserve" text-anchor="middle" x="519.73" y="-1119.78" font-family="Helvetica,sans-Serif" font-size="10.00">assessment, demographics)</text>
</g>
<!-- DS2&#45;&gt;P4 -->
<g id="edge14" class="edge">
<title>DS2&#45;&gt;P4</title>
<path fill="none" stroke="#1e8449" stroke-width="2" d="M141.83,-995.55C151.62,-970.05 164.73,-935.88 177.32,-903.06"/>
<polygon fill="#1e8449" stroke="#1e8449" stroke-width="2" points="180.2,-904.35 180.48,-894.82 174.32,-902.09 180.2,-904.35"/>
<text xml:space="preserve" text-anchor="middle" x="206.73" y="-946.93" font-family="Helvetica,sans-Serif" font-size="10.00"> OULAD enrollment</text>
<text xml:space="preserve" text-anchor="middle" x="206.73" y="-935.68" font-family="Helvetica,sans-Serif" font-size="10.00">records</text>
</g>
<!-- DS2&#45;&gt;P5 -->
<g id="edge17" class="edge">
<title>DS2&#45;&gt;P5</title>
<path fill="none" stroke="#1e8449" stroke-width="2" d="M97.57,-995.45C68.02,-953.4 26.22,-893.93 26.22,-893.93 26.22,-893.93 26.22,-697 26.22,-697 26.22,-697 98.22,-468.7 98.22,-468.7 98.22,-468.7 469.81,-371.77 683.48,-316.03"/>
<polygon fill="#1e8449" stroke="#1e8449" stroke-width="2" points="684.27,-319.08 692.18,-313.76 682.68,-312.98 684.27,-319.08"/>
<text xml:space="preserve" text-anchor="middle" x="99.83" y="-641.87" font-family="Helvetica,sans-Serif" font-size="10.00"> quantitative panel</text>
<text xml:space="preserve" text-anchor="middle" x="99.83" y="-630.62" font-family="Helvetica,sans-Serif" font-size="10.00">(DBN input, RQ1&#45;RQ2)</text>
</g>
<!-- DS3&#45;&gt;P3 -->
<g id="edge9" class="edge">
<title>DS3&#45;&gt;P3</title>
<path fill="none" stroke="#7d6608" stroke-width="2" d="M1037.22,-995.55C1037.22,-968.61 1037.22,-931.99 1037.22,-897.51"/>
<polygon fill="#7d6608" stroke="#7d6608" stroke-width="2" points="1040.38,-897.94 1037.23,-888.94 1034.08,-897.94 1040.38,-897.94"/>
<text xml:space="preserve" text-anchor="middle" x="1077.35" y="-946.93" font-family="Helvetica,sans-Serif" font-size="10.00"> persona profiles</text>
<text xml:space="preserve" text-anchor="middle" x="1077.35" y="-935.68" font-family="Helvetica,sans-Serif" font-size="10.00">+ archetype labels</text>
</g>
<!-- DS3&#45;&gt;P4 -->
<g id="edge15" class="edge">
<title>DS3&#45;&gt;P4</title>
<path fill="none" stroke="#7d6608" stroke-width="2" d="M935.71,-999.01C855.94,-969.76 758.23,-933.93 758.23,-933.93 758.23,-933.93 534.12,-876.88 374.66,-836.28"/>
<polygon fill="#7d6608" stroke="#7d6608" stroke-width="2" points="375.72,-833.31 366.22,-834.14 374.17,-839.41 375.72,-833.31"/>
<text xml:space="preserve" text-anchor="middle" x="837.24" y="-946.93" font-family="Helvetica,sans-Serif" font-size="10.00"> persona</text>
<text xml:space="preserve" text-anchor="middle" x="837.24" y="-935.68" font-family="Helvetica,sans-Serif" font-size="10.00">profiles</text>
</g>
<!-- DS3&#45;&gt;P5 -->
<g id="edge19" class="edge">
<title>DS3&#45;&gt;P5</title>
<path fill="none" stroke="#7d6608" stroke-width="2" d="M1088.81,-995.45C1142,-953.4 1217.22,-893.93 1217.22,-893.93 1217.22,-893.93 1372.22,-583.25 1372.22,-583.25 1372.22,-583.25 1372.22,-468.7 1372.22,-468.7 1372.22,-468.7 1129.16,-383.07 968.58,-326.49"/>
<polygon fill="#7d6608" stroke="#7d6608" stroke-width="2" points="970.03,-323.66 960.5,-323.64 967.94,-329.61 970.03,-323.66"/>
<text xml:space="preserve" text-anchor="middle" x="1395.52" y="-641.87" font-family="Helvetica,sans-Serif" font-size="10.00"> persona archetypes</text>
<text xml:space="preserve" text-anchor="middle" x="1395.52" y="-630.62" font-family="Helvetica,sans-Serif" font-size="10.00">(RQ3)</text>
</g>
<!-- DS4&#45;&gt;P5 -->
<g id="edge18" class="edge">
<title>DS4&#45;&gt;P5</title>
<path fill="none" stroke="#922b21" stroke-width="2" d="M1152.69,-490.34C1097.72,-454.1 1009.84,-396.17 939.7,-349.92"/>
<polygon fill="#922b21" stroke="#922b21" stroke-width="2" points="941.7,-347.47 932.45,-345.14 938.23,-352.73 941.7,-347.47"/>
<text xml:space="preserve" text-anchor="middle" x="1104.19" y="-419.2" font-family="Helvetica,sans-Serif" font-size="10.00"> qualitative mechanisms</text>
<text xml:space="preserve" text-anchor="middle" x="1104.19" y="-407.95" font-family="Helvetica,sans-Serif" font-size="10.00">(RQ3)</text>
</g>
<!-- DS5&#45;&gt;P5 -->
<g id="edge20" class="edge">
<title>DS5&#45;&gt;P5</title>
<path fill="none" stroke="#6c3483" stroke-width="2" d="M346.51,-484.29C442.64,-443.24 591.8,-379.55 699.07,-333.75"/>
<polygon fill="#6c3483" stroke="#6c3483" stroke-width="2" points="700.14,-336.72 707.18,-330.29 697.67,-330.92 700.14,-336.72"/>
<text xml:space="preserve" text-anchor="middle" x="570.61" y="-419.2" font-family="Helvetica,sans-Serif" font-size="10.00"> behavioral&#45;qualitative</text>
<text xml:space="preserve" text-anchor="middle" x="570.61" y="-407.95" font-family="Helvetica,sans-Serif" font-size="10.00">alignment (RQ4)</text>
</g>
</g>
</svg>
