<?xml version="1.0" encoding="UTF-8" standalone="no"?>
<!DOCTYPE svg PUBLIC "-//W3C//DTD SVG 1.1//EN"
 "http://www.w3.org/Graphics/SVG/1.1/DTD/svg11.dtd">
<!-- Generated by graphviz version 14.1.3 (20260303.0454)
 -->
<!-- Title: pipeline_macro Pages: 1 -->
<svg width="1280pt" height="2303pt"
 viewBox="0.00 0.00 1280.00 2303.00" xmlns="http://www.w3.org/2000/svg" xmlns:xlink="http://www.w3.org/1999/xlink">
<g id="graph0" class="graph" transform="scale(1 1) rotate(0) translate(4 2299.14)">
<title>pipeline_macro</title>
<polygon fill="#fafafa" stroke="none" points="-4,4 -4,-2299.14 1276,-2299.14 1276,4 -4,4"/>
<text xml:space="preserve" text-anchor="middle" x="636" y="-2277.84" font-family="Helvetica,sans-Serif" font-size="14.00">From Clicks to Constructs &#45; Macro Pipeline Overview</text>
<text xml:space="preserve" text-anchor="middle" x="636" y="-2262.84" font-family="Helvetica,sans-Serif" font-size="14.00">(OULAD Quantitative Strand &#160;+ &#160;Synthetic Qualitative Strand &#160;+ &#160;LE&#45;JD Integration)</text>
<g id="clust1" class="cluster">
<title>cluster_P</title>
<polygon fill="#ebf5fb" stroke="#1a5276" stroke-width="2.5" points="724,-951.2 724,-2249.14 1016,-2249.14 1016,-951.2 724,-951.2"/>
<text xml:space="preserve" text-anchor="middle" x="870" y="-2231.84" font-family="Helvetica,sans-Serif" font-size="14.00" fill="#1a5276">Pipeline P &#160;&#45; &#160;OULAD Quantitative Strand</text>
</g>
<g id="clust2" class="cluster">
<title>cluster_S</title>
<polygon fill="#fef9e7" stroke="#7d6608" stroke-width="2.5" points="167,-357.81 167,-1881.3 716,-1881.3 716,-357.81 167,-357.81"/>
<text xml:space="preserve" text-anchor="middle" x="441.5" y="-1864" font-family="Helvetica,sans-Serif" font-size="14.00" fill="#7d6608">Pipeline S &#160;&#45; &#160;Synthetic Qualitative Strand</text>
</g>
<g id="clust3" class="cluster">
<title>cluster_integration</title>
<polygon fill="#f4ecf7" stroke="#6c3483" stroke-width="2.5" points="872,-8 872,-506.86 1264,-506.86 1264,-8 872,-8"/>
<text xml:space="preserve" text-anchor="middle" x="1068" y="-489.56" font-family="Helvetica,sans-Serif" font-size="14.00" fill="#6c3483">Integration &#160;&#45; &#160;Convergent Mixed&#45;Methods Analysis</text>
</g>
<!-- proposal -->
<g id="node1" class="node">
<title>proposal</title>
<polygon fill="#eaf4fb" stroke="#2471a3" stroke-width="2.5" points="678.35,-2218.14 483.65,-2218.14 483.65,-2114.47 684.35,-2114.47 684.35,-2212.14 678.35,-2218.14"/>
<polyline fill="none" stroke="#2471a3" stroke-width="2.5" points="678.35,-2218.14 678.35,-2212.14"/>
<polyline fill="none" stroke="#2471a3" stroke-width="2.5" points="684.35,-2212.14 678.35,-2212.14"/>
<text xml:space="preserve" text-anchor="middle" x="584" y="-2193.78" font-family="Helvetica,sans-Serif" font-size="12.00">Paper Proposal</text>
<text xml:space="preserve" text-anchor="middle" x="584" y="-2181.03" font-family="Helvetica,sans-Serif" font-size="12.00">(proposal.md)</text>
<text xml:space="preserve" text-anchor="middle" x="584" y="-2154.28" font-family="Helvetica,sans-Serif" font-size="12.00">Research Problem + Design</text>
<text xml:space="preserve" text-anchor="middle" x="584" y="-2141.53" font-family="Helvetica,sans-Serif" font-size="12.00">4 RQs &#160;| &#160;Appendix A: Q1&#45;Q24</text>
<text xml:space="preserve" text-anchor="middle" x="584" y="-2128.78" font-family="Helvetica,sans-Serif" font-size="12.00">Convergent Mixed&#45;Methods</text>
</g>
<!-- P_setup -->
<g id="node3" class="node">
<title>P_setup</title>
<path fill="#d6eaf8" stroke="#1a5276" d="M936.23,-2037.22C936.23,-2037.22 743.77,-2037.22 743.77,-2037.22 737.77,-2037.22 731.77,-2031.22 731.77,-2025.22 731.77,-2025.22 731.77,-1945.55 731.77,-1945.55 731.77,-1939.55 737.77,-1933.55 743.77,-1933.55 743.77,-1933.55 936.23,-1933.55 936.23,-1933.55 942.23,-1933.55 948.23,-1939.55 948.23,-1945.55 948.23,-1945.55 948.23,-2025.22 948.23,-2025.22 948.23,-2031.22 942.23,-2037.22 936.23,-2037.22"/>
<text xml:space="preserve" text-anchor="middle" x="840" y="-2012.86" font-family="Helvetica,sans-Serif" font-size="12.00">Environment Setup</text>
<text xml:space="preserve" text-anchor="middle" x="840" y="-2000.11" font-family="Helvetica,sans-Serif" font-size="12.00">(P0_foundation.py)</text>
<text xml:space="preserve" text-anchor="middle" x="840" y="-1973.36" font-family="Helvetica,sans-Serif" font-size="12.00">Validate inputs, install packages,</text>
<text xml:space="preserve" text-anchor="middle" x="840" y="-1960.61" font-family="Helvetica,sans-Serif" font-size="12.00">create directory tree,</text>
<text xml:space="preserve" text-anchor="middle" x="840" y="-1947.86" font-family="Helvetica,sans-Serif" font-size="12.00">initialise audit log</text>
</g>
<!-- proposal&#45;&gt;P_setup -->
<g id="edge1" class="edge">
<title>proposal&#45;&gt;P_setup</title>
<path fill="none" stroke="#2471a3" stroke-width="1.5" stroke-dasharray="5,2" d="M658.39,-2113.31C689.29,-2091.71 725.29,-2066.56 757.04,-2044.36"/>
<polygon fill="#2471a3" stroke="#2471a3" stroke-width="1.5" points="758.7,-2047.48 764.89,-2038.88 754.69,-2041.74 758.7,-2047.48"/>
<text xml:space="preserve" text-anchor="middle" x="763.93" y="-2071.97" font-family="Helvetica,sans-Serif" font-size="10.00"> drives requirements</text>
</g>
<!-- S_prompts -->
<g id="node14" class="node">
<title>S_prompts</title>
<path fill="#fef9e7" stroke="#7d6608" d="M409.85,-875.57C409.85,-875.57 212.15,-875.57 212.15,-875.57 206.15,-875.57 200.15,-869.57 200.15,-863.57 200.15,-863.57 200.15,-771.15 200.15,-771.15 200.15,-765.15 206.15,-759.15 212.15,-759.15 212.15,-759.15 409.85,-759.15 409.85,-759.15 415.85,-759.15 421.85,-765.15 421.85,-771.15 421.85,-771.15 421.85,-863.57 421.85,-863.57 421.85,-869.57 415.85,-875.57 409.85,-875.57"/>
<text xml:space="preserve" text-anchor="middle" x="311" y="-851.21" font-family="Helvetica,sans-Serif" font-size="12.00">Interview Prompt Generation</text>
<text xml:space="preserve" text-anchor="middle" x="311" y="-838.46" font-family="Helvetica,sans-Serif" font-size="12.00">(S4 &#45; Generate Prompts)</text>
<text xml:space="preserve" text-anchor="middle" x="311" y="-811.71" font-family="Helvetica,sans-Serif" font-size="12.00">Embed Q1&#45;Q24 from Appendix A</text>
<text xml:space="preserve" text-anchor="middle" x="311" y="-798.96" font-family="Helvetica,sans-Serif" font-size="12.00">across 6 thematic domains</text>
<text xml:space="preserve" text-anchor="middle" x="311" y="-786.21" font-family="Helvetica,sans-Serif" font-size="12.00">Assign unique international name</text>
<text xml:space="preserve" text-anchor="middle" x="311" y="-773.46" font-family="Helvetica,sans-Serif" font-size="12.00">Build one&#45;shot Claude prompt</text>
</g>
<!-- proposal&#45;&gt;S_prompts -->
<g id="edge2" class="edge">
<title>proposal&#45;&gt;S_prompts</title>
<path fill="none" stroke="#7d6608" stroke-width="1.5" stroke-dasharray="5,2" d="M575.03,-2113.55C565.88,-2060.71 553,-1986.38 553,-1986.38 553,-1986.38 553,-1986.38 553,-1010.03 553,-1010.03 519,-914.95 519,-914.95 519,-914.95 478.51,-896.15 433.26,-875.14"/>
<polygon fill="#7d6608" stroke="#7d6608" stroke-width="1.5" points="434.91,-872.04 424.37,-871.01 431.96,-878.39 434.91,-872.04"/>
<text xml:space="preserve" text-anchor="middle" x="597.25" y="-1484.96" font-family="Helvetica,sans-Serif" font-size="10.00"> Q1&#45;Q24 Appendix A</text>
</g>
<!-- oulad_raw -->
<g id="node2" class="node">
<title>oulad_raw</title>
<path fill="#d5f5e3" stroke="#1e8449" stroke-width="2" d="M953.85,-2218.14C953.85,-2218.14 810.15,-2218.14 810.15,-2218.14 804.15,-2218.14 798.15,-2212.14 798.15,-2206.14 798.15,-2206.14 798.15,-2126.47 798.15,-2126.47 798.15,-2120.47 804.15,-2114.47 810.15,-2114.47 810.15,-2114.47 953.85,-2114.47 953.85,-2114.47 959.85,-2114.47 965.85,-2120.47 965.85,-2126.47 965.85,-2126.47 965.85,-2206.14 965.85,-2206.14 965.85,-2212.14 959.85,-2218.14 953.85,-2218.14"/>
<text xml:space="preserve" text-anchor="middle" x="882" y="-2193.78" font-family="Helvetica,sans-Serif" font-size="12.00">OULAD Source Data</text>
<text xml:space="preserve" text-anchor="middle" x="882" y="-2181.03" font-family="Helvetica,sans-Serif" font-size="12.00">(5 read&#45;only CSVs)</text>
<text xml:space="preserve" text-anchor="middle" x="882" y="-2154.28" font-family="Helvetica,sans-Serif" font-size="12.00">studentVle / studentInfo</text>
<text xml:space="preserve" text-anchor="middle" x="882" y="-2141.53" font-family="Helvetica,sans-Serif" font-size="12.00">studentAssessment</text>
<text xml:space="preserve" text-anchor="middle" x="882" y="-2128.78" font-family="Helvetica,sans-Serif" font-size="12.00">assessments / courses</text>
</g>
<!-- oulad_raw&#45;&gt;P_setup -->
<g id="edge3" class="edge">
<title>oulad_raw&#45;&gt;P_setup</title>
<path fill="none" stroke="#1e8449" stroke-width="1.5" d="M869.85,-2113.55C865.15,-2093.53 859.73,-2070.42 854.8,-2049.44"/>
<polygon fill="#1e8449" stroke="#1e8449" stroke-width="1.5" points="858.26,-2048.86 852.57,-2039.92 851.45,-2050.45 858.26,-2048.86"/>
</g>
<!-- P_ingest -->
<g id="node4" class="node">
<title>P_ingest</title>
<path fill="#d6eaf8" stroke="#1a5276" d="M942.73,-1843.92C942.73,-1843.92 759.27,-1843.92 759.27,-1843.92 753.27,-1843.92 747.27,-1837.92 747.27,-1831.92 747.27,-1831.92 747.27,-1752.25 747.27,-1752.25 747.27,-1746.25 753.27,-1740.25 759.27,-1740.25 759.27,-1740.25 942.73,-1740.25 942.73,-1740.25 948.73,-1740.25 954.73,-1746.25 954.73,-1752.25 954.73,-1752.25 954.73,-1831.92 954.73,-1831.92 954.73,-1837.92 948.73,-1843.92 942.73,-1843.92"/>
<text xml:space="preserve" text-anchor="middle" x="851" y="-1819.56" font-family="Helvetica,sans-Serif" font-size="12.00">Data Ingestion into DuckDB</text>
<text xml:space="preserve" text-anchor="middle" x="851" y="-1806.81" font-family="Helvetica,sans-Serif" font-size="12.00">(P1_ingestion.py)</text>
<text xml:space="preserve" text-anchor="middle" x="851" y="-1780.06" font-family="Helvetica,sans-Serif" font-size="12.00">Load 5 CSVs into DuckDB</text>
<text xml:space="preserve" text-anchor="middle" x="851" y="-1767.31" font-family="Helvetica,sans-Serif" font-size="12.00">Validate schemas + row counts</text>
<text xml:space="preserve" text-anchor="middle" x="851" y="-1754.56" font-family="Helvetica,sans-Serif" font-size="12.00">Persist raw tables</text>
</g>
<!-- oulad_raw&#45;&gt;P_ingest -->
<g id="edge5" class="edge">
<title>oulad_raw&#45;&gt;P_ingest</title>
<path fill="none" stroke="#1e8449" stroke-width="1.5" d="M920.37,-2113.58C946.73,-2078.03 977,-2037.22 977,-2037.22 977,-2037.22 977,-1933.55 977,-1933.55 977,-1933.55 942,-1889.3 942,-1889.3 942,-1889.3 926.19,-1872.58 907.75,-1853.09"/>
<polygon fill="#1e8449" stroke="#1e8449" stroke-width="1.5" points="910.41,-1850.8 900.99,-1845.94 905.32,-1855.61 910.41,-1850.8"/>
</g>
<!-- P_setup&#45;&gt;P_ingest -->
<g id="edge4" class="edge">
<title>P_setup&#45;&gt;P_ingest</title>
<path fill="none" stroke="#444444" stroke-width="1.5" d="M842.95,-1933.12C844.31,-1909.44 845.94,-1881.09 847.38,-1856.12"/>
<polygon fill="#444444" stroke="#444444" stroke-width="1.5" points="850.85,-1856.61 847.93,-1846.43 843.86,-1856.21 850.85,-1856.61"/>
<text xml:space="preserve" text-anchor="middle" x="886.8" y="-1891.05" font-family="Helvetica,sans-Serif" font-size="10.00"> environment ready</text>
</g>
<!-- P_panel -->
<g id="node5" class="node">
<title>P_panel</title>
<path fill="#d6eaf8" stroke="#1a5276" d="M955.85,-1643.88C955.85,-1643.88 746.15,-1643.88 746.15,-1643.88 740.15,-1643.88 734.15,-1637.88 734.15,-1631.88 734.15,-1631.88 734.15,-1552.21 734.15,-1552.21 734.15,-1546.21 740.15,-1540.21 746.15,-1540.21 746.15,-1540.21 955.85,-1540.21 955.85,-1540.21 961.85,-1540.21 967.85,-1546.21 967.85,-1552.21 967.85,-1552.21 967.85,-1631.88 967.85,-1631.88 967.85,-1637.88 961.85,-1643.88 955.85,-1643.88"/>
<text xml:space="preserve" text-anchor="middle" x="851" y="-1619.52" font-family="Helvetica,sans-Serif" font-size="12.00">Person x Week Panel Construction</text>
<text xml:space="preserve" text-anchor="middle" x="851" y="-1606.77" font-family="Helvetica,sans-Serif" font-size="12.00">(P2 + P3)</text>
<text xml:space="preserve" text-anchor="middle" x="851" y="-1580.02" font-family="Helvetica,sans-Serif" font-size="12.00">Convert clicks to weekly time&#45;series</text>
<text xml:space="preserve" text-anchor="middle" x="851" y="-1567.27" font-family="Helvetica,sans-Serif" font-size="12.00">Derive engagement indicators:</text>
<text xml:space="preserve" text-anchor="middle" x="851" y="-1554.52" font-family="Helvetica,sans-Serif" font-size="12.00"> &#160;recency, streak, engagement_state</text>
</g>
<!-- P_ingest&#45;&gt;P_panel -->
<g id="edge6" class="edge">
<title>P_ingest&#45;&gt;P_panel</title>
<path fill="none" stroke="#444444" stroke-width="1.5" d="M851,-1739.83C851,-1714.29 851,-1683.17 851,-1656.17"/>
<polygon fill="#444444" stroke="#444444" stroke-width="1.5" points="854.5,-1656.36 851,-1646.36 847.5,-1656.36 854.5,-1656.36"/>
<text xml:space="preserve" text-anchor="middle" x="904.62" y="-1691.38" font-family="Helvetica,sans-Serif" font-size="10.00"> 5 raw tables in DuckDB</text>
</g>
<!-- P_enrich -->
<g id="node6" class="node">
<title>P_enrich</title>
<path fill="#d6eaf8" stroke="#1a5276" d="M957.73,-1443.83C957.73,-1443.83 744.27,-1443.83 744.27,-1443.83 738.27,-1443.83 732.27,-1437.83 732.27,-1431.83 732.27,-1431.83 732.27,-1352.16 732.27,-1352.16 732.27,-1346.16 738.27,-1340.16 744.27,-1340.16 744.27,-1340.16 957.73,-1340.16 957.73,-1340.16 963.73,-1340.16 969.73,-1346.16 969.73,-1352.16 969.73,-1352.16 969.73,-1431.83 969.73,-1431.83 969.73,-1437.83 963.73,-1443.83 957.73,-1443.83"/>
<text xml:space="preserve" text-anchor="middle" x="851" y="-1419.47" font-family="Helvetica,sans-Serif" font-size="12.00">Panel Enrichment</text>
<text xml:space="preserve" text-anchor="middle" x="851" y="-1406.72" font-family="Helvetica,sans-Serif" font-size="12.00">(P4 + P5)</text>
<text xml:space="preserve" text-anchor="middle" x="851" y="-1379.97" font-family="Helvetica,sans-Serif" font-size="12.00">Join assessment scores + timeliness</text>
<text xml:space="preserve" text-anchor="middle" x="851" y="-1367.22" font-family="Helvetica,sans-Serif" font-size="12.00">Join student demographics</text>
<text xml:space="preserve" text-anchor="middle" x="851" y="-1354.47" font-family="Helvetica,sans-Serif" font-size="12.00">Validate referential integrity</text>
</g>
<!-- P_panel&#45;&gt;P_enrich -->
<g id="edge7" class="edge">
<title>P_panel&#45;&gt;P_enrich</title>
<path fill="none" stroke="#444444" stroke-width="1.5" d="M851,-1539.78C851,-1514.24 851,-1483.12 851,-1456.12"/>
<polygon fill="#444444" stroke="#444444" stroke-width="1.5" points="854.5,-1456.31 851,-1446.31 847.5,-1456.31 854.5,-1456.31"/>
<text xml:space="preserve" text-anchor="middle" x="918.5" y="-1484.96" font-family="Helvetica,sans-Serif" font-size="10.00"> panel_base + panel_indicators</text>
</g>
<!-- P_export -->
<g id="node7" class="node">
<title>P_export</title>
<path fill="#d6eaf8" stroke="#1a5276" d="M940.73,-1250.16C940.73,-1250.16 751.27,-1250.16 751.27,-1250.16 745.27,-1250.16 739.27,-1244.16 739.27,-1238.16 739.27,-1238.16 739.27,-1158.49 739.27,-1158.49 739.27,-1152.49 745.27,-1146.49 751.27,-1146.49 751.27,-1146.49 940.73,-1146.49 940.73,-1146.49 946.73,-1146.49 952.73,-1152.49 952.73,-1158.49 952.73,-1158.49 952.73,-1238.16 952.73,-1238.16 952.73,-1244.16 946.73,-1250.16 940.73,-1250.16"/>
<text xml:space="preserve" text-anchor="middle" x="846" y="-1225.8" font-family="Helvetica,sans-Serif" font-size="12.00">Validated Export</text>
<text xml:space="preserve" text-anchor="middle" x="846" y="-1213.05" font-family="Helvetica,sans-Serif" font-size="12.00">(P6_export.py)</text>
<text xml:space="preserve" text-anchor="middle" x="846" y="-1186.3" font-family="Helvetica,sans-Serif" font-size="12.00">Select 22 final columns</text>
<text xml:space="preserve" text-anchor="middle" x="846" y="-1173.55" font-family="Helvetica,sans-Serif" font-size="12.00">Full data quality checks</text>
<text xml:space="preserve" text-anchor="middle" x="846" y="-1160.8" font-family="Helvetica,sans-Serif" font-size="12.00">Export CSV + schema metadata</text>
</g>
<!-- P_enrich&#45;&gt;P_export -->
<g id="edge8" class="edge">
<title>P_enrich&#45;&gt;P_export</title>
<path fill="none" stroke="#444444" stroke-width="1.5" d="M849.67,-1339.89C849.05,-1316.16 848.31,-1287.71 847.65,-1262.63"/>
<polygon fill="#444444" stroke="#444444" stroke-width="1.5" points="851.16,-1262.81 847.4,-1252.9 844.16,-1262.99 851.16,-1262.81"/>
<text xml:space="preserve" text-anchor="middle" x="936.62" y="-1291.29" font-family="Helvetica,sans-Serif" font-size="10.00"> panel with assessment + demographics</text>
</g>
<!-- quant_csv -->
<g id="node8" class="node">
<title>quant_csv</title>
<polygon fill="#a9dfbf" stroke="#1e8449" stroke-width="2.5" points="968.35,-1062.87 731.65,-1062.87 731.65,-959.2 974.35,-959.2 974.35,-1056.87 968.35,-1062.87"/>
<polyline fill="none" stroke="#1e8449" stroke-width="2.5" points="968.35,-1062.87 968.35,-1056.87"/>
<polyline fill="none" stroke="#1e8449" stroke-width="2.5" points="974.35,-1056.87 968.35,-1056.87"/>
<text xml:space="preserve" text-anchor="middle" x="853" y="-1038.51" font-family="Helvetica,sans-Serif" font-size="12.00">engagement_panel_weekly.csv</text>
<text xml:space="preserve" text-anchor="middle" x="853" y="-1025.76" font-family="Helvetica,sans-Serif" font-size="12.00">&lt;Final Quantitative Dataset&gt;</text>
<text xml:space="preserve" text-anchor="middle" x="853" y="-999.01" font-family="Helvetica,sans-Serif" font-size="12.00">Person x Week &#160;| &#160;22 columns</text>
<text xml:space="preserve" text-anchor="middle" x="853" y="-986.26" font-family="Helvetica,sans-Serif" font-size="12.00">Clickstream + Assessment</text>
<text xml:space="preserve" text-anchor="middle" x="853" y="-973.51" font-family="Helvetica,sans-Serif" font-size="12.00">+ Demographics + Engagement State</text>
</g>
<!-- P_export&#45;&gt;quant_csv -->
<g id="edge9" class="edge">
<title>P_export&#45;&gt;quant_csv</title>
<path fill="none" stroke="#1e8449" stroke-width="2.5" d="M847.93,-1146.21C848.73,-1125 849.67,-1100.14 850.52,-1077.62"/>
<polygon fill="#1e8449" stroke="#1e8449" stroke-width="2.5" points="854.02,-1077.86 850.9,-1067.74 847.02,-1077.6 854.02,-1077.86"/>
<text xml:space="preserve" text-anchor="middle" x="897.33" y="-1097.62" font-family="Helvetica,sans-Serif" font-size="10.00"> 22 validated columns</text>
</g>
<!-- S_bridge -->
<g id="node18" class="node">
<title>S_bridge</title>
<path fill="#fef9e7" stroke="#7d6608" d="M696.48,-881.95C696.48,-881.95 493.52,-881.95 493.52,-881.95 487.52,-881.95 481.52,-875.95 481.52,-869.95 481.52,-869.95 481.52,-764.78 481.52,-764.78 481.52,-758.78 487.52,-752.78 493.52,-752.78 493.52,-752.78 696.48,-752.78 696.48,-752.78 702.48,-752.78 708.48,-758.78 708.48,-764.78 708.48,-764.78 708.48,-869.95 708.48,-869.95 708.48,-875.95 702.48,-881.95 696.48,-881.95"/>
<text xml:space="preserve" text-anchor="middle" x="595" y="-857.59" font-family="Helvetica,sans-Serif" font-size="12.00">Persona&#45;Enrollment Alignment</text>
<text xml:space="preserve" text-anchor="middle" x="595" y="-844.84" font-family="Helvetica,sans-Serif" font-size="12.00">(S6 &#45; Enrollment Bridge)</text>
<text xml:space="preserve" text-anchor="middle" x="595" y="-818.09" font-family="Helvetica,sans-Serif" font-size="12.00">Link each persona to up to 10</text>
<text xml:space="preserve" text-anchor="middle" x="595" y="-805.34" font-family="Helvetica,sans-Serif" font-size="12.00">matching OULAD enrollments</text>
<text xml:space="preserve" text-anchor="middle" x="595" y="-792.59" font-family="Helvetica,sans-Serif" font-size="12.00">Weighted similarity score (gender,</text>
<text xml:space="preserve" text-anchor="middle" x="595" y="-779.84" font-family="Helvetica,sans-Serif" font-size="12.00">result, engagement, exam, activity)</text>
<text xml:space="preserve" text-anchor="middle" x="595" y="-767.09" font-family="Helvetica,sans-Serif" font-size="12.00">persona_enrollment_bridge.csv</text>
</g>
<!-- quant_csv&#45;&gt;S_bridge -->
<g id="edge19" class="edge">
<title>quant_csv&#45;&gt;S_bridge</title>
<path fill="none" stroke="#1e8449" stroke-width="2.5" d="M783.18,-958.17C755.14,-937.33 722.33,-912.96 692.03,-890.45"/>
<polygon fill="#1e8449" stroke="#1e8449" stroke-width="2.5" points="694.15,-887.66 684.03,-884.51 689.97,-893.28 694.15,-887.66"/>
<text xml:space="preserve" text-anchor="middle" x="793.07" y="-916.7" font-family="Helvetica,sans-Serif" font-size="10.00"> OULAD enrollment data</text>
</g>
<!-- dbn -->
<g id="node20" class="node">
<title>dbn</title>
<path fill="#f4ecf7" stroke="#6c3483" stroke-width="2" d="M1244.47,-475.86C1244.47,-475.86 1023.52,-475.86 1023.52,-475.86 1017.52,-475.86 1011.52,-469.86 1011.52,-463.86 1011.52,-463.86 1011.52,-371.44 1011.52,-371.44 1011.52,-365.44 1017.52,-359.44 1023.52,-359.44 1023.52,-359.44 1244.47,-359.44 1244.47,-359.44 1250.47,-359.44 1256.47,-365.44 1256.47,-371.44 1256.47,-371.44 1256.47,-463.86 1256.47,-463.86 1256.47,-469.86 1250.47,-475.86 1244.47,-475.86"/>
<text xml:space="preserve" text-anchor="middle" x="1134" y="-451.5" font-family="Helvetica,sans-Serif" font-size="12.00">Probabilistic Temporal Modeling</text>
<text xml:space="preserve" text-anchor="middle" x="1134" y="-438.75" font-family="Helvetica,sans-Serif" font-size="12.00">(Dynamic Bayesian Network)</text>
<text xml:space="preserve" text-anchor="middle" x="1134" y="-412" font-family="Helvetica,sans-Serif" font-size="12.00">Model engagement as latent construct</text>
<text xml:space="preserve" text-anchor="middle" x="1134" y="-399.25" font-family="Helvetica,sans-Serif" font-size="12.00">over time using DBN</text>
<text xml:space="preserve" text-anchor="middle" x="1134" y="-386.5" font-family="Helvetica,sans-Serif" font-size="12.00">Identify trajectories + structural</text>
<text xml:space="preserve" text-anchor="middle" x="1134" y="-373.75" font-family="Helvetica,sans-Serif" font-size="12.00">patterns &#160;(addresses RQ1, RQ2)</text>
</g>
<!-- quant_csv&#45;&gt;dbn -->
<g id="edge22" class="edge">
<title>quant_csv&#45;&gt;dbn</title>
<path fill="none" stroke="#6c3483" stroke-width="2.5" d="M877.69,-958.07C928.2,-851.77 1043.37,-609.38 1100.54,-489.07"/>
<polygon fill="#6c3483" stroke="#6c3483" stroke-width="2.5" points="1103.63,-490.72 1104.76,-480.19 1097.31,-487.72 1103.63,-490.72"/>
<text xml:space="preserve" text-anchor="middle" x="1033.25" y="-710.28" font-family="Helvetica,sans-Serif" font-size="10.00"> quantitative panel</text>
</g>
<!-- ext_data -->
<g id="node9" class="node">
<title>ext_data</title>
<path fill="#fef5e7" stroke="#d68910" stroke-width="2" d="M389.6,-1850.3C389.6,-1850.3 232.4,-1850.3 232.4,-1850.3 226.4,-1850.3 220.4,-1844.3 220.4,-1838.3 220.4,-1838.3 220.4,-1745.88 220.4,-1745.88 220.4,-1739.88 226.4,-1733.88 232.4,-1733.88 232.4,-1733.88 389.6,-1733.88 389.6,-1733.88 395.6,-1733.88 401.6,-1739.88 401.6,-1745.88 401.6,-1745.88 401.6,-1838.3 401.6,-1838.3 401.6,-1844.3 395.6,-1850.3 389.6,-1850.3"/>
<text xml:space="preserve" text-anchor="middle" x="311" y="-1825.94" font-family="Helvetica,sans-Serif" font-size="12.00">External Datasets</text>
<text xml:space="preserve" text-anchor="middle" x="311" y="-1813.19" font-family="Helvetica,sans-Serif" font-size="12.00">(2 public sources)</text>
<text xml:space="preserve" text-anchor="middle" x="311" y="-1786.44" font-family="Helvetica,sans-Serif" font-size="12.00">Zenodo: 14,003 students</text>
<text xml:space="preserve" text-anchor="middle" x="311" y="-1773.69" font-family="Helvetica,sans-Serif" font-size="12.00">(behavioral + academic)</text>
<text xml:space="preserve" text-anchor="middle" x="311" y="-1760.94" font-family="Helvetica,sans-Serif" font-size="12.00">Kaggle: 1,300 students</text>
<text xml:space="preserve" text-anchor="middle" x="311" y="-1748.19" font-family="Helvetica,sans-Serif" font-size="12.00">(psychological constructs)</text>
</g>
<!-- S_ingest_norm -->
<g id="node10" class="node">
<title>S_ingest_norm</title>
<path fill="#fef9e7" stroke="#7d6608" d="M420.35,-1656.63C420.35,-1656.63 201.65,-1656.63 201.65,-1656.63 195.65,-1656.63 189.65,-1650.63 189.65,-1644.63 189.65,-1644.63 189.65,-1539.46 189.65,-1539.46 189.65,-1533.46 195.65,-1527.46 201.65,-1527.46 201.65,-1527.46 420.35,-1527.46 420.35,-1527.46 426.35,-1527.46 432.35,-1533.46 432.35,-1539.46 432.35,-1539.46 432.35,-1644.63 432.35,-1644.63 432.35,-1650.63 426.35,-1656.63 420.35,-1656.63"/>
<text xml:space="preserve" text-anchor="middle" x="311" y="-1632.27" font-family="Helvetica,sans-Serif" font-size="12.00">Data Ingestion and Normalization</text>
<text xml:space="preserve" text-anchor="middle" x="311" y="-1619.52" font-family="Helvetica,sans-Serif" font-size="12.00">(S0 + S1)</text>
<text xml:space="preserve" text-anchor="middle" x="311" y="-1592.77" font-family="Helvetica,sans-Serif" font-size="12.00">Download / validate raw files</text>
<text xml:space="preserve" text-anchor="middle" x="311" y="-1580.02" font-family="Helvetica,sans-Serif" font-size="12.00">Decode label&#45;encoded columns</text>
<text xml:space="preserve" text-anchor="middle" x="311" y="-1567.27" font-family="Helvetica,sans-Serif" font-size="12.00">Normalize 6 bridge constructs to [0,1]:</text>
<text xml:space="preserve" text-anchor="middle" x="311" y="-1554.52" font-family="Helvetica,sans-Serif" font-size="12.00"> &#160;attendance, assignment, exam,</text>
<text xml:space="preserve" text-anchor="middle" x="311" y="-1541.77" font-family="Helvetica,sans-Serif" font-size="12.00"> &#160;motivation, stress, discussion</text>
</g>
<!-- ext_data&#45;&gt;S_ingest_norm -->
<g id="edge10" class="edge">
<title>ext_data&#45;&gt;S_ingest_norm</title>
<path fill="none" stroke="#d68910" stroke-width="1.5" d="M311,-1733.01C311,-1713.07 311,-1690.44 311,-1669.28"/>
<polygon fill="#d68910" stroke="#d68910" stroke-width="1.5" points="314.5,-1669.29 311,-1659.29 307.5,-1669.29 314.5,-1669.29"/>
</g>
<!-- S_cluster -->
<g id="node11" class="node">
<title>S_cluster</title>
<path fill="#fef9e7" stroke="#7d6608" d="M425.23,-1450.21C425.23,-1450.21 196.78,-1450.21 196.78,-1450.21 190.78,-1450.21 184.78,-1444.21 184.78,-1438.21 184.78,-1438.21 184.78,-1345.79 184.78,-1345.79 184.78,-1339.79 190.78,-1333.79 196.78,-1333.79 196.78,-1333.79 425.23,-1333.79 425.23,-1333.79 431.23,-1333.79 437.23,-1339.79 437.23,-1345.79 437.23,-1345.79 437.23,-1438.21 437.23,-1438.21 437.23,-1444.21 431.23,-1450.21 425.23,-1450.21"/>
<text xml:space="preserve" text-anchor="middle" x="311" y="-1425.85" font-family="Helvetica,sans-Serif" font-size="12.00">Cross&#45;Dataset Clustering and Matching</text>
<text xml:space="preserve" text-anchor="middle" x="311" y="-1413.1" font-family="Helvetica,sans-Serif" font-size="12.00">(S2 &#45; Cluster and Match)</text>
<text xml:space="preserve" text-anchor="middle" x="311" y="-1386.35" font-family="Helvetica,sans-Serif" font-size="12.00">KMeans clustering per dataset</text>
<text xml:space="preserve" text-anchor="middle" x="311" y="-1373.6" font-family="Helvetica,sans-Serif" font-size="12.00">Nearest&#45;neighbor matching</text>
<text xml:space="preserve" text-anchor="middle" x="311" y="-1360.85" font-family="Helvetica,sans-Serif" font-size="12.00">(Kaggle &#45;&gt; Zenodo, 1&#45;to&#45;1)</text>
<text xml:space="preserve" text-anchor="middle" x="311" y="-1348.1" font-family="Helvetica,sans-Serif" font-size="12.00">1,300 matched persona pairs</text>
</g>
<!-- S_ingest_norm&#45;&gt;S_cluster -->
<g id="edge11" class="edge">
<title>S_ingest_norm&#45;&gt;S_cluster</title>
<path fill="none" stroke="#444444" stroke-width="1.5" d="M311,-1527.02C311,-1506.42 311,-1483.51 311,-1462.54"/>
<polygon fill="#444444" stroke="#444444" stroke-width="1.5" points="314.5,-1462.72 311,-1452.72 307.5,-1462.72 314.5,-1462.72"/>
<text xml:space="preserve" text-anchor="middle" x="360.5" y="-1484.96" font-family="Helvetica,sans-Serif" font-size="10.00"> decoded + normalized</text>
</g>
<!-- S_personas -->
<g id="node12" class="node">
<title>S_personas</title>
<path fill="#fef9e7" stroke="#7d6608" d="M431.23,-1256.54C431.23,-1256.54 190.77,-1256.54 190.77,-1256.54 184.78,-1256.54 178.78,-1250.54 178.78,-1244.54 178.78,-1244.54 178.78,-1152.12 178.78,-1152.12 178.78,-1146.12 184.78,-1140.12 190.78,-1140.12 190.78,-1140.12 431.23,-1140.12 431.23,-1140.12 437.23,-1140.12 443.23,-1146.12 443.23,-1152.12 443.23,-1152.12 443.23,-1244.54 443.23,-1244.54 443.23,-1250.54 437.23,-1256.54 431.23,-1256.54"/>
<text xml:space="preserve" text-anchor="middle" x="311" y="-1232.18" font-family="Helvetica,sans-Serif" font-size="12.00">Synthetic Persona Assembly</text>
<text xml:space="preserve" text-anchor="middle" x="311" y="-1219.43" font-family="Helvetica,sans-Serif" font-size="12.00">(S3 &#45; Persona Assembly)</text>
<text xml:space="preserve" text-anchor="middle" x="311" y="-1192.68" font-family="Helvetica,sans-Serif" font-size="12.00">Merge Kaggle + Zenodo per matched pair</text>
<text xml:space="preserve" text-anchor="middle" x="311" y="-1179.93" font-family="Helvetica,sans-Serif" font-size="12.00">Assign 8 engagement archetypes</text>
<text xml:space="preserve" text-anchor="middle" x="311" y="-1167.18" font-family="Helvetica,sans-Serif" font-size="12.00">(risk level x motivation x stress)</text>
<text xml:space="preserve" text-anchor="middle" x="311" y="-1154.43" font-family="Helvetica,sans-Serif" font-size="12.00">student_personas.csv: 1,300 x 37</text>
</g>
<!-- S_cluster&#45;&gt;S_personas -->
<g id="edge12" class="edge">
<title>S_cluster&#45;&gt;S_personas</title>
<path fill="none" stroke="#444444" stroke-width="1.5" d="M311,-1333.49C311,-1313.21 311,-1290.19 311,-1269.02"/>
<polygon fill="#444444" stroke="#444444" stroke-width="1.5" points="314.5,-1269.07 311,-1259.07 307.5,-1269.07 314.5,-1269.07"/>
<text xml:space="preserve" text-anchor="middle" x="356.75" y="-1291.29" font-family="Helvetica,sans-Serif" font-size="10.00"> 1,300 matched pairs</text>
</g>
<!-- personas_csv -->
<g id="node13" class="node">
<title>personas_csv</title>
<polygon fill="#fad7a0" stroke="#7d6608" stroke-width="2" points="392.98,-1043.12 223.03,-1043.12 223.03,-978.95 398.98,-978.95 398.98,-1037.12 392.98,-1043.12"/>
<polyline fill="none" stroke="#7d6608" stroke-width="2" points="392.98,-1043.12 392.98,-1037.12"/>
<polyline fill="none" stroke="#7d6608" stroke-width="2" points="398.98,-1037.12 392.98,-1037.12"/>
<text xml:space="preserve" text-anchor="middle" x="311" y="-1018.76" font-family="Helvetica,sans-Serif" font-size="12.00">student_personas.csv</text>
<text xml:space="preserve" text-anchor="middle" x="311" y="-1006.01" font-family="Helvetica,sans-Serif" font-size="12.00">1,300 synthetic personas</text>
<text xml:space="preserve" text-anchor="middle" x="311" y="-993.26" font-family="Helvetica,sans-Serif" font-size="12.00">(full profile + archetype)</text>
</g>
<!-- S_personas&#45;&gt;personas_csv -->
<g id="edge13" class="edge">
<title>S_personas&#45;&gt;personas_csv</title>
<path fill="none" stroke="#7d6608" stroke-width="2.5" d="M311,-1139.72C311,-1113.22 311,-1082.23 311,-1057.42"/>
<polygon fill="#7d6608" stroke="#7d6608" stroke-width="2.5" points="314.5,-1057.76 311,-1047.76 307.5,-1057.76 314.5,-1057.76"/>
</g>
<!-- personas_csv&#45;&gt;S_prompts -->
<g id="edge14" class="edge">
<title>personas_csv&#45;&gt;S_prompts</title>
<path fill="none" stroke="#444444" stroke-width="1.5" d="M311,-977.95C311,-953.4 311,-918.62 311,-887.8"/>
<polygon fill="#444444" stroke="#444444" stroke-width="1.5" points="314.5,-888.04 311,-878.04 307.5,-888.04 314.5,-888.04"/>
</g>
<!-- personas_csv&#45;&gt;S_bridge -->
<g id="edge20" class="edge">
<title>personas_csv&#45;&gt;S_bridge</title>
<path fill="none" stroke="#7d6608" stroke-width="1.5" d="M358.54,-977.95C394.36,-953.78 444.85,-919.7 489.99,-889.24"/>
<polygon fill="#7d6608" stroke="#7d6608" stroke-width="1.5" points="491.92,-892.16 498.25,-883.66 488,-886.35 491.92,-892.16"/>
<text xml:space="preserve" text-anchor="middle" x="479.36" y="-916.7" font-family="Helvetica,sans-Serif" font-size="10.00"> 1,300 personas</text>
</g>
<!-- lejd -->
<g id="node21" class="node">
<title>lejd</title>
<path fill="#e8daef" stroke="#6c3483" stroke-width="3.5" d="M1252.03,-107.62C1252.03,-107.62 1252.03,-190.57 1252.03,-190.57 1252.03,-196.57 1247.12,-206.01 1242.21,-209.46 1242.21,-209.46 1154.05,-271.3 1154.05,-271.3 1149.14,-274.74 1138.23,-278.19 1132.23,-278.19 1132.23,-278.19 1003.77,-278.19 1003.77,-278.19 997.77,-278.19 986.86,-274.74 981.95,-271.3 981.95,-271.3 893.79,-209.46 893.79,-209.46 888.88,-206.01 883.97,-196.57 883.97,-190.57 883.97,-190.57 883.97,-107.62 883.97,-107.62 883.97,-101.62 888.88,-92.18 893.79,-88.73 893.79,-88.73 981.95,-26.89 981.95,-26.89 986.86,-23.45 997.77,-20 1003.77,-20 1003.77,-20 1132.23,-20 1132.23,-20 1138.23,-20 1149.14,-23.45 1154.05,-26.89 1154.05,-26.89 1242.21,-88.73 1242.21,-88.73 1247.12,-92.18 1252.03,-101.62 1252.03,-107.62"/>
<path fill="none" stroke="#6c3483" stroke-width="3.5" d="M1256.03,-105.54C1256.03,-105.54 1256.03,-192.65 1256.03,-192.65 1256.03,-198.65 1251.12,-208.09 1246.21,-211.54 1246.21,-211.54 1155.32,-275.3 1155.32,-275.3 1150.4,-278.74 1139.49,-282.19 1133.49,-282.19 1133.49,-282.19 1002.51,-282.19 1002.51,-282.19 996.51,-282.19 985.6,-278.74 980.68,-275.3 980.68,-275.3 889.79,-211.54 889.79,-211.54 884.88,-208.09 879.97,-198.65 879.97,-192.65 879.97,-192.65 879.97,-105.54 879.97,-105.54 879.97,-99.54 884.88,-90.1 889.79,-86.65 889.79,-86.65 980.68,-22.89 980.68,-22.89 985.6,-19.45 996.51,-16 1002.51,-16 1002.51,-16 1133.49,-16 1133.49,-16 1139.49,-16 1150.4,-19.45 1155.32,-22.89 1155.32,-22.89 1246.21,-86.65 1246.21,-86.65 1251.12,-90.1 1256.03,-99.54 1256.03,-105.54"/>
<text xml:space="preserve" text-anchor="middle" x="1068" y="-209.07" font-family="Helvetica,sans-Serif" font-size="12.00">LE&#45;JD</text>
<text xml:space="preserve" text-anchor="middle" x="1068" y="-196.32" font-family="Helvetica,sans-Serif" font-size="12.00">Latent Engagement Joint Display</text>
<text xml:space="preserve" text-anchor="middle" x="1068" y="-169.57" font-family="Helvetica,sans-Serif" font-size="12.00">Convergent integration:</text>
<text xml:space="preserve" text-anchor="middle" x="1068" y="-156.82" font-family="Helvetica,sans-Serif" font-size="12.00"> &#160;Quantitative patterns (DBN)</text>
<text xml:space="preserve" text-anchor="middle" x="1068" y="-144.07" font-family="Helvetica,sans-Serif" font-size="12.00"> &#160;Qualitative mechanisms (LLM)</text>
<text xml:space="preserve" text-anchor="middle" x="1068" y="-131.32" font-family="Helvetica,sans-Serif" font-size="12.00"> &#160;Persona profiles + archetypes</text>
<text xml:space="preserve" text-anchor="middle" x="1068" y="-118.57" font-family="Helvetica,sans-Serif" font-size="12.00"> &#160;Behavioral&#45;qualitative alignment</text>
<text xml:space="preserve" text-anchor="middle" x="1068" y="-91.82" font-family="Helvetica,sans-Serif" font-size="12.00">Final analytical artifact</text>
<text xml:space="preserve" text-anchor="middle" x="1068" y="-79.07" font-family="Helvetica,sans-Serif" font-size="12.00">Addresses RQ1 + RQ2 + RQ3 + RQ4</text>
</g>
<!-- personas_csv&#45;&gt;lejd -->
<g id="edge25" class="edge">
<title>personas_csv&#45;&gt;lejd</title>
<path fill="none" stroke="#6c3483" stroke-width="2.5" d="M258.95,-977.95C170.41,-923.39 0,-818.36 0,-818.36 0,-818.36 0,-818.36 0,-416.65 0,-416.65 146,-357.81 146,-357.81 146,-357.81 593.71,-256.95 865.17,-195.79"/>
<polygon fill="#6c3483" stroke="#6c3483" stroke-width="2.5" points="865.68,-199.26 874.67,-193.65 864.14,-192.43 865.68,-199.26"/>
<text xml:space="preserve" text-anchor="middle" x="58.88" y="-613.44" font-family="Helvetica,sans-Serif" font-size="10.00"> persona archetypes (RQ3)</text>
</g>
<!-- S_llm -->
<g id="node15" class="node">
<title>S_llm</title>
<path fill="#fadbd8" stroke="#922b21" stroke-width="2.5" d="M418.73,-675.53C418.73,-675.53 187.28,-675.53 187.28,-675.53 181.28,-675.53 175.28,-669.53 175.28,-663.53 175.28,-663.53 175.28,-571.11 175.28,-571.11 175.28,-565.11 181.28,-559.11 187.28,-559.11 187.28,-559.11 418.73,-559.11 418.73,-559.11 424.73,-559.11 430.73,-565.11 430.73,-571.11 430.73,-571.11 430.73,-663.53 430.73,-663.53 430.73,-669.53 424.73,-675.53 418.73,-675.53"/>
<text xml:space="preserve" text-anchor="middle" x="303" y="-651.17" font-family="Helvetica,sans-Serif" font-size="12.00">LLM Survey Execution</text>
<text xml:space="preserve" text-anchor="middle" x="303" y="-638.42" font-family="Helvetica,sans-Serif" font-size="12.00">(S5 &#45; Run LLM Survey)</text>
<text xml:space="preserve" text-anchor="middle" x="303" y="-611.67" font-family="Helvetica,sans-Serif" font-size="12.00">Anthropic Claude API &#160;| &#160;1,300 calls</text>
<text xml:space="preserve" text-anchor="middle" x="303" y="-598.92" font-family="Helvetica,sans-Serif" font-size="12.00">5 parallel workers &#160;| &#160;resume&#45;safe</text>
<text xml:space="preserve" text-anchor="middle" x="303" y="-586.17" font-family="Helvetica,sans-Serif" font-size="12.00">Persona answers Q1&#45;Q24 in first person</text>
<text xml:space="preserve" text-anchor="middle" x="303" y="-573.42" font-family="Helvetica,sans-Serif" font-size="12.00">JSON schema validation per response</text>
</g>
<!-- S_prompts&#45;&gt;S_llm -->
<g id="edge15" class="edge">
<title>S_prompts&#45;&gt;S_llm</title>
<path fill="none" stroke="#444444" stroke-width="1.5" d="M308.68,-758.82C307.79,-736.94 306.77,-711.76 305.85,-688.82"/>
<polygon fill="#444444" stroke="#444444" stroke-width="1.5" points="309.35,-688.82 305.45,-678.97 302.36,-689.1 309.35,-688.82"/>
<text xml:space="preserve" text-anchor="middle" x="359.88" y="-710.28" font-family="Helvetica,sans-Serif" font-size="10.00"> 1,300 one&#45;shot prompts</text>
</g>
<!-- claude_api -->
<g id="node16" class="node">
<title>claude_api</title>
<polygon fill="#fdedec" stroke="#c0392b" stroke-width="2" points="398.6,-469.48 175.4,-469.48 175.4,-465.48 171.4,-465.48 171.4,-461.48 175.4,-461.48 175.4,-373.81 171.4,-373.81 171.4,-369.81 175.4,-369.81 175.4,-365.81 398.6,-365.81 398.6,-469.48"/>
<polyline fill="none" stroke="#c0392b" stroke-width="2" points="175.4,-465.48 179.4,-465.48 179.4,-461.48 175.4,-461.48"/>
<polyline fill="none" stroke="#c0392b" stroke-width="2" points="175.4,-373.81 179.4,-373.81 179.4,-369.81 175.4,-369.81"/>
<text xml:space="preserve" text-anchor="middle" x="287" y="-445.12" font-family="Helvetica,sans-Serif" font-size="12.00">Anthropic Claude API</text>
<text xml:space="preserve" text-anchor="middle" x="287" y="-432.37" font-family="Helvetica,sans-Serif" font-size="12.00">(claude&#45;opus&#45;4&#45;5)</text>
<text xml:space="preserve" text-anchor="middle" x="287" y="-405.62" font-family="Helvetica,sans-Serif" font-size="12.00">Simulates student semi&#45;structured</text>
<text xml:space="preserve" text-anchor="middle" x="287" y="-392.87" font-family="Helvetica,sans-Serif" font-size="12.00">interviews in first person</text>
<text xml:space="preserve" text-anchor="middle" x="287" y="-380.12" font-family="Helvetica,sans-Serif" font-size="12.00">1,300 personas x 24 questions</text>
</g>
<!-- S_llm&#45;&gt;claude_api -->
<g id="edge16" class="edge">
<title>S_llm&#45;&gt;claude_api</title>
<path fill="none" stroke="#c0392b" stroke-width="1.5" d="M269.5,-557.91C259.55,-540.57 251.25,-526.11 251.25,-526.11 251.25,-526.11 251.25,-514.86 251.25,-514.86 251.25,-514.86 256.82,-499.86 263.57,-481.7"/>
<polygon fill="#c0392b" stroke="#c0392b" stroke-width="1.5" points="266.77,-483.14 266.97,-472.54 260.21,-480.7 266.77,-483.14"/>
<text xml:space="preserve" text-anchor="middle" x="296.62" y="-516.61" font-family="Helvetica,sans-Serif" font-size="10.00"> API call per persona</text>
</g>
<!-- llm_responses -->
<g id="node17" class="node">
<title>llm_responses</title>
<polygon fill="#fad7a0" stroke="#7d6608" stroke-width="2" points="662.98,-463.11 457.02,-463.11 457.02,-372.19 668.98,-372.19 668.98,-457.11 662.98,-463.11"/>
<polyline fill="none" stroke="#7d6608" stroke-width="2" points="662.98,-463.11 662.98,-457.11"/>
<polyline fill="none" stroke="#7d6608" stroke-width="2" points="668.98,-457.11 662.98,-457.11"/>
<text xml:space="preserve" text-anchor="middle" x="563" y="-438.75" font-family="Helvetica,sans-Serif" font-size="12.00">llm_survey_responses.csv</text>
<text xml:space="preserve" text-anchor="middle" x="563" y="-426" font-family="Helvetica,sans-Serif" font-size="12.00">+ &#160;1,300 JSON files</text>
<text xml:space="preserve" text-anchor="middle" x="563" y="-399.25" font-family="Helvetica,sans-Serif" font-size="12.00">Full qualitative evidence strand:</text>
<text xml:space="preserve" text-anchor="middle" x="563" y="-386.5" font-family="Helvetica,sans-Serif" font-size="12.00">Q1&#45;Q24 answers per persona</text>
</g>
<!-- S_llm&#45;&gt;llm_responses -->
<g id="edge18" class="edge">
<title>S_llm&#45;&gt;llm_responses</title>
<path fill="none" stroke="#7d6608" stroke-width="2.5" d="M394.29,-557.91C421.4,-540.57 444,-526.11 444,-526.11 444,-526.11 473.35,-499.61 502.89,-472.93"/>
<polygon fill="#7d6608" stroke="#7d6608" stroke-width="2.5" points="504.99,-475.75 510.07,-466.45 500.3,-470.55 504.99,-475.75"/>
</g>
<!-- claude_api&#45;&gt;S_llm -->
<g id="edge17" class="edge">
<title>claude_api&#45;&gt;S_llm</title>
<path fill="none" stroke="#c0392b" stroke-width="1.5" d="M321.97,-470.41C337.36,-493.19 352,-514.86 352,-514.86 352,-514.86 352,-526.11 352,-526.11 352,-526.11 347.11,-535.11 340.42,-547.43"/>
<polygon fill="#c0392b" stroke="#c0392b" stroke-width="1.5" points="337.51,-545.46 335.81,-555.92 343.66,-548.8 337.51,-545.46"/>
<text xml:space="preserve" text-anchor="middle" x="391" y="-516.61" font-family="Helvetica,sans-Serif" font-size="10.00"> JSON responses</text>
</g>
<!-- llm_responses&#45;&gt;lejd -->
<g id="edge24" class="edge">
<title>llm_responses&#45;&gt;lejd</title>
<path fill="none" stroke="#6c3483" stroke-width="2.5" d="M582.24,-371.26C593.69,-344.25 606,-315.19 606,-315.19 606,-315.19 750.13,-263.68 877.39,-218.21"/>
<polygon fill="#6c3483" stroke="#6c3483" stroke-width="2.5" points="878.24,-221.62 886.48,-214.96 875.88,-215.03 878.24,-221.62"/>
<text xml:space="preserve" text-anchor="middle" x="673.5" y="-316.94" font-family="Helvetica,sans-Serif" font-size="10.00"> qualitative mechanisms (RQ3)</text>
</g>
<!-- bridge_csv -->
<g id="node19" class="node">
<title>bridge_csv</title>
<polygon fill="#fad7a0" stroke="#7d6608" stroke-width="2" points="701.73,-649.4 488.27,-649.4 488.27,-585.23 707.73,-585.23 707.73,-643.4 701.73,-649.4"/>
<polyline fill="none" stroke="#7d6608" stroke-width="2" points="701.73,-649.4 701.73,-643.4"/>
<polyline fill="none" stroke="#7d6608" stroke-width="2" points="707.73,-643.4 701.73,-643.4"/>
<text xml:space="preserve" text-anchor="middle" x="598" y="-625.04" font-family="Helvetica,sans-Serif" font-size="12.00">persona_enrollment_bridge.csv</text>
<text xml:space="preserve" text-anchor="middle" x="598" y="-612.29" font-family="Helvetica,sans-Serif" font-size="12.00">(persona &lt;&#45;&gt; enrollment mapping</text>
<text xml:space="preserve" text-anchor="middle" x="598" y="-599.54" font-family="Helvetica,sans-Serif" font-size="12.00">with similarity scores)</text>
</g>
<!-- S_bridge&#45;&gt;bridge_csv -->
<g id="edge21" class="edge">
<title>S_bridge&#45;&gt;bridge_csv</title>
<path fill="none" stroke="#7d6608" stroke-width="2.5" d="M595.97,-752.34C596.41,-723.54 596.91,-690.21 597.31,-664"/>
<polygon fill="#7d6608" stroke="#7d6608" stroke-width="2.5" points="600.81,-664.07 597.46,-654.02 593.81,-663.97 600.81,-664.07"/>
</g>
<!-- bridge_csv&#45;&gt;lejd -->
<g id="edge26" class="edge">
<title>bridge_csv&#45;&gt;lejd</title>
<path fill="none" stroke="#6c3483" stroke-width="2.5" d="M627.19,-584.36C656.71,-552.06 698,-506.86 698,-506.86 698,-506.86 814.25,-357.81 814.25,-357.81 814.25,-357.81 872.72,-309.95 933.53,-260.17"/>
<polygon fill="#6c3483" stroke="#6c3483" stroke-width="2.5" points="935.65,-262.96 941.17,-253.92 931.22,-257.54 935.65,-262.96"/>
<text xml:space="preserve" text-anchor="middle" x="898.62" y="-413.77" font-family="Helvetica,sans-Serif" font-size="10.00"> behavioral&#45;qualitative alignment (RQ4)</text>
</g>
<!-- dbn&#45;&gt;lejd -->
<g id="edge23" class="edge">
<title>dbn&#45;&gt;lejd</title>
<path fill="none" stroke="#6c3483" stroke-width="2.5" d="M1119.6,-358.48C1115.04,-340.06 1109.77,-318.81 1104.39,-297.06"/>
<polygon fill="#6c3483" stroke="#6c3483" stroke-width="2.5" points="1107.83,-296.38 1102.03,-287.52 1101.03,-298.06 1107.83,-296.38"/>
<text xml:space="preserve" text-anchor="middle" x="1188.02" y="-316.94" font-family="Helvetica,sans-Serif" font-size="10.00"> engagement patterns + trajectories</text>
</g>
</g>
</svg>
